<svg viewBox="0 0 510 103">
  <path
    d="M0 0 C9.98189156 7.89725872 18.21449773 19.83416903 20.3515625 32.6328125 C21.8200337 49.30268003 18.76081726 63.33322879 8.4453125 76.7890625 C-0.65470602 86.79295492 -13.9766391 93.30731047 -27.4453125 94.234375 C-41.76304868 94.69132403 -55.12905244 90.53818682 -66.25 81.33984375 C-75.0102475 73.00808662 -82.31518815 60.28242622 -82.67578125 47.9375 C-83.06783894 30.96122601 -79.55192522 17.56071805 -67.75 4.77734375 C-49.25285247 -12.64646833 -20.83784272 -14.32601687 0 0 Z M-60.4375 6.02734375 C-61.30375 6.60484375 -62.17 7.18234375 -63.0625 7.77734375 C-71.72224065 15.98130857 -77.39971801 27.50061481 -77.72998047 39.45849609 C-77.86390083 53.29802232 -73.7647818 65.47894897 -64.1875 75.77734375 C-54.88744374 84.46285885 -42.59252169 89.48187661 -29.828125 89.23828125 C-17.47385071 88.14819822 -4.86009037 83.46470405 3.5625 74.02734375 C11.93294198 62.77789625 16.61811559 51.12877465 15.5625 37.02734375 C13.87285033 25.55632764 8.64245078 14.90914656 0.14453125 6.9140625 C-18.85736213 -6.97083085 -41.33090158 -8.37183187 -60.4375 6.02734375 Z "
    fill="#015097" transform="translate(153.4375,8.97265625)" />
  <path
    d="M0 0 C10.04026076 7.21252244 16.83649721 16.54243757 19.00390625 28.98828125 C20.46808019 42.07288332 17.40604836 53.63830752 9.72265625 64.30859375 C2.95573983 72.73141442 -6.72325896 77.8072473 -17.25 79.875 C-29.49900567 80.96866122 -41.30656565 78.86311869 -51.25 71.28125 C-61.00782994 63.03356041 -66.98819666 53.25390019 -68.06640625 40.421875 C-68.65397582 26.62062933 -65.17528452 15.49987012 -55.75 5.1875 C-39.87925595 -9.31801876 -18.14898531 -11.35834148 0 0 Z M-55.5625 13.375 C-61.83670731 21.98379607 -63.90415981 31.68607064 -62.75 42.1875 C-60.90081714 52.59488454 -54.97439189 61.6047033 -46.75 68.1875 C-38.31262111 73.89825735 -27.72625542 76.26277617 -17.625 74.6875 C-7.08832175 71.96219772 2.26109702 66.81407664 7.93359375 57.390625 C13.75442981 46.39105949 15.74259331 36.80178847 12.56640625 24.55078125 C9.12858318 14.81792217 2.83129416 7.24716465 -6.2578125 2.37109375 C-24.36058978 -6.22630674 -42.61617799 -1.76561388 -55.5625 13.375 Z "
    fill="#015097" transform="translate(146.75,14.8125)" />
  <path
    d="M0 0 C1.98 0 3.96 0 6 0 C6 23.43 6 46.86 6 71 C17.55 71 29.1 71 41 71 C41 72.65 41 74.3 41 76 C29.45 76 17.9 76 6 76 C6 76.99 6 77.98 6 79 C17.55 79 29.1 79 41 79 C41 80.98 41 82.96 41 85 C29.45 85 17.9 85 6 85 C6 85.99 6 86.98 6 88 C17.55 88 29.1 88 41 88 C41 89.65 41 91.3 41 93 C29.45 93 17.9 93 6 93 C6 94.32 6 95.64 6 97 C17.55 97 29.1 97 41 97 C41 98.65 41 100.3 41 102 C27.47 102 13.94 102 0 102 C0 68.34 0 34.68 0 0 Z "
    fill="#015097" transform="translate(26,0)" />
  <path
    d="M0 0 C1.98 0 3.96 0 6 0 C6.3717334 0.71841064 6.7434668 1.43682129 7.12646484 2.17700195 C11.41094129 10.4548217 15.70272675 18.72881726 20 27 C20.75821045 28.46034668 20.75821045 28.46034668 21.53173828 29.95019531 C26.46581279 39.44081685 31.47580881 48.83569607 37 58 C37.54785156 56.95328125 38.09570312 55.9065625 38.66015625 54.828125 C43.9750337 44.6927773 49.34549773 34.58777719 54.75 24.5 C55.06542755 23.91093872 55.3808551 23.32187744 55.70584106 22.71496582 C59.77093874 15.12516276 63.86510294 7.55200959 68 0 C69.98 0 71.96 0 74 0 C74 33.66 74 67.32 74 102 C72.35 102 70.7 102 69 102 C68.67 72.96 68.34 43.92 68 14 C59.23147142 30.36792001 50.48140944 46.71693634 41.97705078 63.21948242 C41 65 41 65 40 66 C37.66702567 66.04092937 35.33294775 66.04241723 33 66 C32.47680176 64.97865967 31.95360352 63.95731934 31.41455078 62.9050293 C19.81973392 40.22296859 19.81973392 40.22296859 8.0625 17.625 C7.69334473 16.92205811 7.32418945 16.21911621 6.94384766 15.49487305 C5.28222495 12.35097614 3.56649842 9.26590606 1.74609375 6.2109375 C0 3 0 3 0 0 Z "
    fill="#015097" transform="translate(210,0)" />
  <path
    d="M0 0 C1.4540625 0.0309375 1.4540625 0.0309375 2.9375 0.0625 C7.98230719 12.80151603 13.02562227 25.54112169 18.06684875 38.28155518 C20.47241617 44.36091197 22.87892998 50.43989214 25.28663635 56.5184021 C26.62934502 59.90909804 27.9708428 63.30027205 29.3119812 66.69158936 C29.92665198 68.24521439 30.54180762 69.7986477 31.15750122 71.35186768 C35.19851134 81.54732431 39.12082142 91.78090586 42.9375 102.0625 C40.9575 102.0625 38.9775 102.0625 36.9375 102.0625 C33.52650166 95.54341997 30.78602347 88.86951622 28.12109375 82.015625 C27.66452896 80.85037292 27.20796417 79.68512085 26.73756409 78.48455811 C25.52424476 75.38600224 24.31413405 72.28623383 23.10565186 69.18579102 C21.9160776 66.135886 20.72251175 63.08754467 19.52929688 60.0390625 C17.63228632 55.19140426 15.73714959 50.34301962 13.84326172 45.49414062 C9.22550079 33.67673376 4.58087246 21.86986196 -0.0625 10.0625 C-2.73911738 16.4633146 -5.40897868 22.86476404 -7.98046875 29.30859375 C-8.2355571 29.94702209 -8.49064545 30.58545044 -8.75346375 31.2432251 C-9.58645109 33.32849489 -10.41822161 35.41424772 -11.25 37.5 C-11.84446675 38.98872691 -12.43903334 40.47741396 -13.03369141 41.96606445 C-14.32828761 45.2070642 -15.6224873 48.44822193 -16.91650391 51.68945312 C-20.50980378 60.68809997 -24.11017362 69.68392117 -27.7093811 78.6802063 C-29.67887048 83.60312222 -31.6480191 88.52617443 -33.6171875 93.44921875 C-34.28889807 95.12850002 -34.96061013 96.80778069 -35.63232422 98.48706055 C-36.10428223 99.66695557 -36.57624023 100.84685059 -37.0625 102.0625 C-39.0425 102.0625 -41.0225 102.0625 -43.0625 102.0625 C-41.13004028 95.2461268 -38.85071854 88.67007829 -36.2109375 82.09765625 C-35.65321655 80.69392761 -35.65321655 80.69392761 -35.08422852 79.26184082 C-33.87256981 76.21465074 -32.65511577 73.16981402 -31.4375 70.125 C-30.59284668 68.0046412 -29.7486139 65.88411483 -28.90478516 63.76342773 C-27.6031749 60.49249566 -26.30122074 57.22170473 -24.99765015 53.95155334 C-22.00127309 46.43306627 -19.02534263 38.90676026 -16.0625 31.375 C-15.27555965 29.37621824 -14.48861317 27.37743889 -13.70166016 25.37866211 C-12.57305443 22.51171882 -11.44515621 19.64450793 -10.31951904 16.77639771 C-9.2856665 14.14297181 -8.24865738 11.51081008 -7.2109375 8.87890625 C-6.90454346 8.09584106 -6.59814941 7.31277588 -6.2824707 6.50598145 C-3.74165956 0.0763604 -3.74165956 0.0763604 0 0 Z "
    fill="#015097" transform="translate(331.0625,-0.0625)" />
  <path
    d="M0 0 C8.01978299 5.74751114 13.33132852 13.32479938 14.96875 23.10546875 C16.26857139 33.5446593 14.56710612 42.89856324 8.25390625 51.4609375 C2.42272383 58.33670815 -4.19985214 63.65858993 -13.41455078 64.71533203 C-22.34635447 65.37138669 -30.56198272 65.11170904 -38.46875 60.4921875 C-39.17257813 60.09128906 -39.87640625 59.69039063 -40.6015625 59.27734375 C-47.46897553 54.77305193 -52.55704732 47.42369509 -54.90625 39.5546875 C-56.93535007 28.38323768 -55.05491296 19.15220442 -49.71875 9.2421875 C-37.03360453 -6.26187918 -17.62147304 -10.76248195 0 0 Z M-43.46875 10.4921875 C-48.99073994 17.63002692 -51.60285378 25.46242448 -50.46875 34.4921875 C-48.32781192 43.47899945 -44.45695853 50.03083032 -36.83984375 55.31640625 C-28.50783352 60.07597002 -20.21111965 61.22074104 -10.86328125 58.82421875 C-2.13788771 55.38512216 4.33716088 48.77236344 8.53125 40.4921875 C10.79899945 33.68893914 10.70602642 24.23410986 7.96875 17.5546875 C3.08206172 8.51346284 -3.59431372 2.87745363 -13.48046875 -0.1171875 C-25.32425892 -2.4440618 -35.45227988 1.70799307 -43.46875 10.4921875 Z "
    fill="#015097" transform="translate(142.46875,21.5078125)" />
  <path
    d="M0 0 C1.98 0 3.96 0 6 0 C6.5873291 1.1449292 6.5873291 1.1449292 7.18652344 2.31298828 C13.83364467 15.25605475 20.48329655 28.18957866 27.5 40.9375 C40 63.66514901 40 63.66514901 40 67 C38.02 67 36.04 67 34 67 C24.29639064 49.5128215 15.17777191 31.78193307 6 14 C5.67 43.04 5.34 72.08 5 102 C3.35 102 1.7 102 0 102 C0 68.34 0 34.68 0 0 Z "
    fill="#015097" transform="translate(180,0)" />
  <path
    d="M0 0 C6.47778816 5.31347983 10.02423389 10.31010444 10.94921875 18.703125 C11.21298162 26.13644222 10.49418524 31.96381161 6.578125 38.3359375 C6.02125 39.2434375 5.464375 40.1509375 4.890625 41.0859375 C-2.21548661 47.99999204 -10.12971223 49.76531517 -19.76953125 49.67578125 C-26.68745667 49.03208124 -32.02389283 46.15888147 -36.796875 41.1484375 C-41.32433669 35.21900614 -44.18660384 28.22137814 -43.8125 20.69921875 C-42.72011684 14.09030066 -40.42518881 6.94425285 -35.421875 2.3359375 C-24.27533793 -5.250418 -11.89858586 -8.17547996 0 0 Z M-33.421875 8.3359375 C-37.336739 13.73210139 -38.66401466 18.65077734 -38.421875 25.3359375 C-37.27594506 31.93408146 -33.29579325 36.91894908 -28.421875 41.3359375 C-22.7144985 44.8481692 -16.95329634 45.16412925 -10.421875 44.3359375 C-4.24402915 42.55264179 0.09534689 38.67102117 3.578125 33.3359375 C6.34791469 27.53076185 6.66758163 21.3007322 4.9609375 15.08984375 C2.10492403 8.60694591 -3.13011311 3.88105023 -9.484375 0.8984375 C-19.09248869 -0.94141406 -26.52165207 1.43571457 -33.421875 8.3359375 Z "
    fill="#015097" transform="translate(138.421875,28.6640625)" />
  <path
    d="M0 0 C0.86625 0.185625 1.7325 0.37125 2.625 0.5625 C1.17335946 5.82265814 -1.24688752 9.77833827 -4.25 14.25 C-5.25358601 15.77279087 -6.25615492 17.29625246 -7.2578125 18.8203125 C-8.03366699 19.9964209 -8.03366699 19.9964209 -8.82519531 21.19628906 C-11.30228998 24.97826788 -13.71579087 28.79953919 -16.125 32.625 C-16.61532715 33.40254639 -17.1056543 34.18009277 -17.61083984 34.98120117 C-21.71524584 41.49807561 -25.79545238 48.03004672 -29.875 54.5625 C-41.35881734 72.95118112 -41.35881734 72.95118112 -46.52734375 81.046875 C-48.51617116 84.17051599 -50.43196002 87.32800451 -52.31640625 90.515625 C-52.79883789 91.31105713 -53.28126953 92.10648926 -53.77832031 92.92602539 C-54.6926161 94.43385311 -55.58782388 95.95348549 -56.45996094 97.48608398 C-57.65521386 99.42755099 -58.68777768 101.02776207 -60.375 102.5625 C-64.19921875 103.01953125 -64.19921875 103.01953125 -67.375 102.5625 C-62.84234577 94.36735725 -58.06227809 86.41577419 -52.93408203 78.58178711 C-48.85228036 72.33468157 -44.88364301 66.02104451 -40.9375 59.6875 C-34.94308931 50.0703014 -28.91394748 40.47626952 -22.85302734 30.90087891 C-21.29084139 28.42935313 -19.73289516 25.95519286 -18.17578125 23.48046875 C-17.64428467 22.63653564 -17.11278809 21.79260254 -16.56518555 20.9230957 C-15.56184943 19.32974599 -14.55933313 17.73587957 -13.55786133 16.14135742 C-12.63942242 14.6839852 -11.7164273 13.22947291 -10.78857422 11.77807617 C-9.78335233 10.20253409 -8.79155955 8.61838892 -7.80908203 7.02856445 C-7.28942871 6.20831787 -6.76977539 5.38807129 -6.234375 4.54296875 C-5.76741211 3.79426514 -5.30044922 3.04556152 -4.81933594 2.27416992 C-3.375 0.5625 -3.375 0.5625 0 0 Z "
    fill="#015097" transform="translate(504.375,-0.5625)" />
  <path
    d="M0 0 C1.4540625 0.0309375 1.4540625 0.0309375 2.9375 0.0625 C1.55209034 3.80809625 -0.16681959 7.0704319 -2.265625 10.46484375 C-2.90918945 11.50890381 -3.55275391 12.55296387 -4.21582031 13.62866211 C-4.90772461 14.74120361 -5.59962891 15.85374512 -6.3125 17 C-7.03500041 18.16729408 -7.75732891 19.33469458 -8.47949219 20.50219727 C-14.71001103 30.55848693 -21.05616256 40.54035148 -27.43066406 50.50585938 C-30.03012406 54.57850227 -32.60964887 58.6636567 -35.1875 62.75 C-35.9134436 63.90036743 -35.9134436 63.90036743 -36.65405273 65.07397461 C-37.62707855 66.61613181 -38.5999789 68.15836818 -39.57275391 69.70068359 C-41.12488817 72.16140908 -42.67756005 74.62179443 -44.23046875 77.08203125 C-44.75278076 77.91025391 -45.27509277 78.73847656 -45.81323242 79.59179688 C-46.84007949 81.21626027 -47.87010214 82.83872147 -48.90356445 84.45898438 C-51.05322542 87.83452633 -53.17262326 91.20513086 -55.125 94.69921875 C-58.09092105 99.86971951 -58.09092105 99.86971951 -60.0625 102.0625 C-64 102.75 -64 102.75 -67.0625 102.0625 C-63.07143947 94.46480522 -58.69833616 87.26129245 -53.9375 80.125 C-49.06134345 72.73873924 -44.32136179 65.30376008 -39.8125 57.6875 C-35.33362179 50.12558383 -30.66672873 42.71977932 -25.859375 35.36328125 C-22.79451155 30.66898293 -19.80070937 25.93084499 -16.8125 21.1875 C-16.30871826 20.38836182 -15.80493652 19.58922363 -15.28588867 18.76586914 C-14.32044016 17.2340114 -13.35518137 15.70203407 -12.39013672 14.16992188 C-10.55505463 11.25700746 -8.71723628 8.34589756 -6.875 5.4375 C-6.34519531 4.59960938 -5.81539063 3.76171875 -5.26953125 2.8984375 C-3.40971183 0.06958596 -3.40971183 0.06958596 0 0 Z "
    fill="#015097" transform="translate(473.0625,-0.0625)" />
  <path
    d="M0 0 C0.92554688 0.08894531 1.85109375 0.17789062 2.8046875 0.26953125 C2.14367754 3.87475238 0.62270525 6.47414721 -1.30078125 9.57421875 C-1.94756836 10.62150146 -2.59435547 11.66878418 -3.26074219 12.74780273 C-3.96789058 13.88017573 -4.67525261 15.01241533 -5.3828125 16.14453125 C-6.1100131 17.3162937 -6.83689735 18.48825253 -7.56347656 19.66040039 C-13.81577024 29.72928777 -20.17702551 39.72870153 -26.56347656 49.71289062 C-29.16293656 53.78553352 -31.74246137 57.87068795 -34.3203125 61.95703125 C-34.8042749 62.72394287 -35.2882373 63.49085449 -35.78686523 64.28100586 C-36.75989105 65.82316306 -37.7327914 67.36539943 -38.70556641 68.90771484 C-42.76188981 75.33853631 -46.82126047 81.76743272 -50.88378906 88.19433594 C-51.71684356 89.51246015 -52.54956476 90.83079512 -53.38183594 92.14941406 C-54.38089014 93.7319231 -55.3817639 95.31328305 -56.3828125 96.89453125 C-57.17751953 98.15136719 -57.17751953 98.15136719 -57.98828125 99.43359375 C-59.1953125 101.26953125 -59.1953125 101.26953125 -60.1953125 102.26953125 C-62.19489614 102.31033908 -64.19576504 102.31207481 -66.1953125 102.26953125 C-64.80990284 98.523935 -63.09099291 95.26159935 -60.9921875 91.8671875 C-60.34862305 90.82312744 -59.70505859 89.77906738 -59.04199219 88.70336914 C-58.35008789 87.59082764 -57.65818359 86.47828613 -56.9453125 85.33203125 C-56.22281209 84.16473717 -55.50048359 82.99733667 -54.77832031 81.82983398 C-48.54780147 71.77354432 -42.20164994 61.79167977 -35.82714844 51.82617188 C-33.22768844 47.75352898 -30.64816363 43.66837455 -28.0703125 39.58203125 C-27.5863501 38.81511963 -27.1023877 38.04820801 -26.60375977 37.25805664 C-25.63073395 35.71589944 -24.6578336 34.17366307 -23.68505859 32.63134766 C-22.13292433 30.17062217 -20.58025245 27.71023682 -19.02734375 25.25 C-18.50495117 24.42177734 -17.98255859 23.59355469 -17.44433594 22.74023438 C-16.41783655 21.11606711 -15.38861673 19.49361544 -14.35644531 17.87304688 C-12.20625401 14.49274613 -10.08099698 11.11415651 -8.09765625 7.6328125 C-7.51113281 6.62605469 -6.92460937 5.61929687 -6.3203125 4.58203125 C-5.84851563 3.73253906 -5.37671875 2.88304687 -4.890625 2.0078125 C-3.1953125 0.26953125 -3.1953125 0.26953125 0 0 Z "
    fill="#015097" transform="translate(483.1953125,-0.26953125)" />
  <path
    d="M0 0 C0.92554688 0.07863281 1.85109375 0.15726563 2.8046875 0.23828125 C1.10687183 5.25183106 -1.72518121 9.44417095 -4.5703125 13.86328125 C-5.66544999 15.58067471 -6.76049973 17.29812412 -7.85546875 19.015625 C-8.69295654 20.32442627 -8.69295654 20.32442627 -9.54736328 21.65966797 C-12.04821582 25.57285382 -14.52877548 29.4987517 -17.0078125 33.42578125 C-17.49427246 34.1955127 -17.98073242 34.96524414 -18.48193359 35.75830078 C-23.21981281 43.26159805 -27.91825436 50.78941435 -32.6171875 58.31713867 C-37.04456119 65.40650489 -41.47451194 72.49456001 -45.97729492 79.53637695 C-48.37887711 83.30178032 -50.70323086 87.08777924 -52.9140625 90.96875 C-53.35194092 91.71962891 -53.78981934 92.47050781 -54.2409668 93.24414062 C-55.06096504 94.65626324 -55.86084046 96.08034596 -56.63598633 97.51757812 C-57.74609375 99.40625 -57.74609375 99.40625 -60.1953125 102.23828125 C-63.98828125 102.6640625 -63.98828125 102.6640625 -67.1953125 102.23828125 C-64.14147914 95.80876444 -60.55833276 89.89845422 -56.6953125 83.92578125 C-55.43331321 81.95851327 -54.17159908 79.99106234 -52.91015625 78.0234375 C-52.28222168 77.04648926 -51.65428711 76.06954102 -51.00732422 75.06298828 C-48.40599947 71.00783773 -45.82882168 66.93769945 -43.2578125 62.86328125 C-42.77892578 62.10490967 -42.30003906 61.34653809 -41.80664062 60.56518555 C-37.75072041 54.13462825 -33.72221674 47.68703489 -29.6953125 41.23828125 C-27.19599946 37.23785155 -24.69591689 33.23790386 -22.1953125 29.23828125 C-21.62683594 28.32852539 -21.05835938 27.41876953 -20.47265625 26.48144531 C-17.48352288 21.70271851 -14.47702276 16.93616748 -11.43652344 12.18994141 C-10.31011678 10.41879766 -9.20829973 8.63207508 -8.109375 6.84375 C-7.51898438 5.92207031 -6.92859375 5.00039062 -6.3203125 4.05078125 C-5.84851563 3.29410156 -5.37671875 2.53742187 -4.890625 1.7578125 C-3.1953125 0.23828125 -3.1953125 0.23828125 0 0 Z "
    fill="#015097" transform="translate(494.1953125,-0.23828125)" />
  <path
    d="M0 0 C1.98 0 3.96 0 6 0 C12.36079367 15.15034698 18.58643759 30.33417414 24.46508789 45.67907715 C27.6818851 54.07343252 30.96087358 62.43969263 34.3125 70.78125 C34.68038635 71.6971843 35.04827271 72.61311859 35.42730713 73.55680847 C37.25318328 78.0990397 39.08434282 82.63907893 40.92089844 87.17700195 C41.58796464 88.83281523 42.25496033 90.48865693 42.921875 92.14453125 C43.38968384 93.29381104 43.38968384 93.29381104 43.86694336 94.46630859 C46 99.77366546 46 99.77366546 46 102 C44.02 102 42.04 102 40 102 C36.26669534 94.06148979 32.99439753 86.00917964 29.875 77.8125 C28.83380881 75.09516579 27.78862706 72.37937951 26.7421875 69.6640625 C26.31664581 68.55961037 26.31664581 68.55961037 25.88250732 67.43284607 C21.65660649 56.49099053 17.32184977 45.59171193 13 34.6875 C12.58345154 33.63607819 12.16690308 32.58465637 11.73773193 31.50137329 C9.82889681 26.68365109 7.91924794 21.8662517 6.0078125 17.04956055 C5.67942383 16.22024017 5.35103516 15.3909198 5.01269531 14.53646851 C4.301457 12.75505058 3.58125405 10.97719828 2.85449219 9.20205688 C2.48743164 8.30240204 2.12037109 7.40274719 1.7421875 6.47583008 C1.40815918 5.66463211 1.07413086 4.85343414 0.72998047 4.01765442 C0 2 0 2 0 0 Z "
    fill="#015097" transform="translate(356,0)" />
  <path
    d="M0 0 C1.98 0 3.96 0 6 0 C10.20405873 9.97301591 14.23658777 20.01165026 18.25 30.0625 C18.58960754 30.91262665 18.92921509 31.7627533 19.27911377 32.63864136 C21.471223 38.12718558 23.66024947 43.61695335 25.84753418 49.10742188 C26.62470442 51.05804428 27.40213531 53.00856286 28.17980957 54.95898438 C30.53880624 60.87543594 32.89389231 66.79341772 35.24353027 72.71359253 C35.99346371 74.60183656 36.74450871 76.48963953 37.4967041 78.37698364 C38.55053765 81.02217874 39.60002227 83.66905978 40.6484375 86.31640625 C40.9591922 87.09391235 41.2699469 87.87141846 41.59011841 88.67248535 C43.32446392 93.06745739 44.77961295 97.43466697 46 102 C44.02 102 42.04 102 40 102 C32.87173455 85.05206404 26.00570893 68.02131166 19.38574219 50.86865234 C16.30491582 42.89280185 13.18920514 34.93322634 10 27 C9.67353485 26.18761871 9.3470697 25.37523743 9.01071167 24.53823853 C7.43462042 20.62011204 5.85321919 16.70420427 4.26611328 12.79052734 C3.70078322 11.38902286 3.13551294 9.98749426 2.5703125 8.5859375 C2.17767212 7.62457886 2.17767212 7.62457886 1.77709961 6.64379883 C0 2.22626335 0 2.22626335 0 0 Z "
    fill="#015097" transform="translate(337,0)" />
  <path
    d="M0 0 C1.98 0 3.96 0 6 0 C6.43530029 1.11592529 6.87060059 2.23185059 7.3190918 3.3815918 C9.04336609 7.80064957 10.76921539 12.21909084 12.4956665 16.63729858 C13.28945833 18.66881134 14.08303785 20.70040707 14.87640381 22.73208618 C19.83295685 35.42147749 24.82453176 48.09611526 29.87109375 60.75 C30.59358559 62.56380913 30.59358559 62.56380913 31.33067322 64.41426086 C33.69580566 70.35176387 36.06586203 76.28721325 38.4440918 82.21948242 C39.30931816 84.38971707 40.17431993 86.56004128 41.0390625 88.73046875 C41.44132553 89.72840454 41.84358856 90.72634033 42.25804138 91.7545166 C42.62099808 92.6685022 42.98395477 93.58248779 43.35791016 94.52416992 C43.67668121 95.32030197 43.99545227 96.11643402 44.32388306 96.93669128 C45 99 45 99 45 102 C43.02 102 41.04 102 39 102 C38.45363892 100.59258545 38.45363892 100.59258545 37.89624023 99.15673828 C36.07920987 94.47849922 34.25852864 89.80168388 32.4375 85.125 C32.0957373 84.24672546 31.75397461 83.36845093 31.40185547 82.46356201 C26.85282712 70.77961798 22.25974001 59.11396172 17.61393929 47.4682045 C16.81925395 45.47588931 16.02518913 43.4833279 15.23130798 41.49069214 C14.70378274 40.16680236 14.17624065 38.84291929 13.64868164 37.51904297 C13.38831965 36.865679 13.12795767 36.21231503 12.85970592 35.53915215 C11.29003908 31.6018287 9.71549196 27.66649589 8.13774776 23.7324028 C7.38540579 21.85420327 6.63537521 19.97510045 5.88633728 18.09558105 C4.9609361 15.77388522 4.03163593 13.45373861 3.09791565 11.13537598 C2.6885527 10.10537476 2.27918976 9.07537354 1.85742188 8.01416016 C1.49708862 7.11412262 1.13675537 6.21408508 0.76550293 5.28677368 C0 3 0 3 0 0 Z "
    fill="#015097" transform="translate(347,0)" />
  <path d="M0 0 C1.98 0 3.96 0 6 0 C6 33.66 6 67.32 6 102 C4.02 102 2.04 102 0 102 C0 68.34 0 34.68 0 0 Z "
    fill="#015097" transform="translate(17,0)" />
  <path d="M0 0 C1.65 0 3.3 0 5 0 C5 33.66 5 67.32 5 102 C3.35 102 1.7 102 0 102 C0 68.34 0 34.68 0 0 Z " fill="#015097"
    transform="translate(9,0)" />
  <path d="M0 0 C1.65 0 3.3 0 5 0 C5 33.66 5 67.32 5 102 C3.35 102 1.7 102 0 102 C0 68.34 0 34.68 0 0 Z " fill="#015097"
    transform="translate(0,0)" />
  <path
    d="M0 0 C0.99 0.33 1.98 0.66 3 1 C5.04237004 8.18968152 2.30970091 13.53374418 -0.43359375 20.23046875 C-0.9043483 21.41610916 -1.37510284 22.60174957 -1.86012268 23.82331848 C-3.113545 26.97955441 -4.38630781 30.12763016 -5.66339111 33.27435303 C-6.92979836 36.40417524 -8.17807978 39.54119484 -9.42773438 42.67773438 C-11.36354975 47.52800714 -13.30933308 52.37406195 -15.26513672 57.21630859 C-17.01428177 61.5474629 -18.75186398 65.88279413 -20.47314453 70.22509766 C-21.03220238 71.63363762 -21.03220238 71.63363762 -21.60255432 73.07063293 C-22.28903691 74.80218625 -22.97366657 76.53447574 -23.65611267 78.2676239 C-25.88897505 83.88897505 -25.88897505 83.88897505 -27 85 C-28.99958364 85.04080783 -31.00045254 85.04254356 -33 85 C-28.89817237 73.98681036 -24.70549743 63.01229087 -20.4375 52.0625 C-19.83446762 50.51334832 -19.23144037 48.96419463 -18.62841797 47.41503906 C-12.46504666 31.59189751 -6.24003821 15.79303789 0 0 Z "
    fill="#015097" transform="translate(330,17)" />
  <path
    d="M0 0 C0.66 0 1.32 0 2 0 C7.07681388 7.6591379 6.51393766 15.46265401 6.390625 24.3125 C6.38315395 25.89289633 6.3774651 27.47330199 6.37347412 29.05371094 C6.35828556 33.19014582 6.31906369 37.3260086 6.2746582 41.46221924 C6.23355801 45.69218204 6.21543179 49.92223833 6.1953125 54.15234375 C6.15256159 62.43515681 6.08439416 70.71750701 6 79 C4.02 79 2.04 79 0 79 C0 52.93 0 26.86 0 0 Z "
    fill="#015097" transform="translate(188,23)" />
  <path
    d="M0 0 C0.66 0 1.32 0 2 0 C4.09148858 4.18297717 4.03615485 6.47960003 3 11 C1.93366339 14.14227344 0.70592462 17.21225619 -0.53515625 20.2890625 C-0.89210068 21.18756927 -1.2490451 22.08607605 -1.61680603 23.0118103 C-2.75980269 25.88512925 -3.91100319 28.75507846 -5.0625 31.625 C-5.80978796 33.49978358 -6.55653749 35.37478188 -7.30273438 37.25 C-9.1541943 41.8986045 -11.01259095 46.54439442 -12.87384033 51.18908691 C-14.40829691 55.01911582 -15.94011369 58.85019865 -17.47203064 62.6812439 C-18.98084335 66.45436687 -20.49041271 70.22718687 -22 74 C-23.98 74 -25.96 74 -28 74 C-27.36083665 70.29182387 -26.32907949 66.99465374 -24.94628906 63.49804688 C-24.52204651 62.41922241 -24.09780396 61.34039795 -23.66070557 60.22888184 C-23.20032898 59.07053833 -22.73995239 57.91219482 -22.265625 56.71875 C-21.53943349 54.87656056 -20.8132422 53.03437104 -20.08706284 51.19217682 C-19.06874646 48.6120848 -18.04651853 46.03354926 -17.02441406 43.45495605 C-15.49949599 39.60540326 -13.98010131 35.75366829 -12.46010971 31.90216827 C-11.27327447 28.89507563 -10.08532512 25.88843559 -8.89508057 22.88269043 C-5.8838906 15.27259467 -2.9247919 7.64371288 0 0 Z "
    fill="#015097" transform="translate(335,28)" />
  <path
    d="M0 0 C1.98 0 3.96 0 6 0 C6.4964502 0.96317139 6.4964502 0.96317139 7.00292969 1.94580078 C12.97765514 13.52311634 18.98620904 25.07593145 25.25 36.5 C25.98379883 37.83985962 25.98379883 37.83985962 26.73242188 39.20678711 C27.6900528 40.95510626 28.64773375 42.70339802 29.60546875 44.45166016 C31.83357203 48.52325365 34.05236715 52.59937336 36.25 56.6875 C36.63317383 57.38875 37.01634766 58.09 37.41113281 58.8125 C40 63.65540432 40 63.65540432 40 67 C38.02 67 36.04 67 34 67 C25.22837253 50.76676855 16.59925396 34.47054891 8.19335938 18.04467773 C7.86781067 17.40988495 7.54226196 16.77509216 7.20684814 16.12106323 C6.32680333 14.40448791 5.44896352 12.68678263 4.57128906 10.96899414 C3.04913011 8.00272019 3.04913011 8.00272019 1.29589844 5.29467773 C0 3 0 3 0 0 Z "
    fill="#015097" transform="translate(200,0)" />
  <path
    d="M0 0 C1.98 0 3.96 0 6 0 C6.4218457 0.82387207 6.84369141 1.64774414 7.27832031 2.49658203 C17.75252778 22.94705113 17.75252778 22.94705113 28.625 43.1875 C40 63.86416833 40 63.86416833 40 67 C38.02 67 36.04 67 34 67 C26.27964542 53.08690708 18.85986368 39.03870649 11.609375 24.87670898 C10.96097829 23.6117955 10.3125416 22.3469025 9.6640625 21.08203125 C9.19870087 20.17181465 9.19870087 20.17181465 8.72393799 19.24320984 C6.28118198 14.48724037 3.70076389 9.81805591 1.04443359 5.1784668 C0 3 0 3 0 0 Z "
    fill="#015097" transform="translate(190,0)" />
  <path
    d="M0 0 C0.33 0 0.66 0 1 0 C1 26.07 1 52.14 1 79 C-0.65 79 -2.3 79 -4 79 C-4.09285147 69.73332854 -4.16384147 60.46681825 -4.20724869 51.19978237 C-4.22808645 46.89628557 -4.25633378 42.59310802 -4.30175781 38.28979492 C-4.3453525 34.13357994 -4.36916576 29.97767124 -4.37950897 25.82124519 C-4.38687601 24.23885339 -4.40126219 22.65647757 -4.42292023 21.07421684 C-4.45213691 18.85046592 -4.45594863 16.62796598 -4.45410156 14.40405273 C-4.46298401 13.14052475 -4.47186646 11.87699677 -4.48101807 10.57518005 C-3.88429082 6.1399883 -2.41993916 3.72787721 0 0 Z "
    fill="#015097" transform="translate(274,23)" />
  <path
    d="M0 0 C2.78315234 2.60640888 3.74872097 4.10411929 4 8 C3.15478516 10.95654297 3.15478516 10.95654297 1.7890625 14.2421875 C1.28995361 15.46333252 0.79084473 16.68447754 0.27661133 17.94262695 C-0.27374163 19.2534953 -0.82428252 20.56428475 -1.375 21.875 C-1.92758155 23.21581657 -2.4787593 24.5572125 -3.02856445 25.89916992 C-3.86513055 27.94033604 -4.70268132 29.98103516 -5.54518127 32.01976013 C-8.58771172 39.38593597 -11.45794741 46.81745324 -14.31982422 54.25537109 C-14.66158691 55.13660645 -15.00334961 56.0178418 -15.35546875 56.92578125 C-15.65090576 57.69317627 -15.94634277 58.46057129 -16.25073242 59.2512207 C-17 61 -17 61 -18 62 C-19.99958364 62.04080783 -22.00045254 62.04254356 -24 62 C-19.33750467 48.289299 -14.04165303 34.86534636 -8.625 21.4375 C-7.78483046 19.34713612 -6.94498467 17.25664209 -6.10546875 15.16601562 C-4.074032 10.10917471 -2.03864423 5.05393925 0 0 Z "
    fill="#015097" transform="translate(340,40)" />
  <path
    d="M0 0 C0.66 0 1.32 0 2 0 C2 20.79 2 41.58 2 63 C0.02 63 -1.96 63 -4 63 C-4.1017053 55.31375473 -4.17159403 47.62768405 -4.21972656 39.94091797 C-4.23979933 37.32789627 -4.26706358 34.71491925 -4.30175781 32.10205078 C-4.35046435 28.33875478 -4.37301311 24.57605451 -4.390625 20.8125 C-4.41127014 19.65073242 -4.43191528 18.48896484 -4.45318604 17.29199219 C-4.45508634 10.36981047 -3.65458369 5.91814937 0 0 Z "
    fill="#015097" transform="translate(265,39)" />
  <path
    d="M0 0 C0.66 0 1.32 0 2 0 C6.2763929 6.95468741 6.53650944 12.53893655 6.390625 20.59375 C6.38496521 21.78101685 6.37930542 22.96828369 6.37347412 24.19152832 C6.35119009 27.96143931 6.30100585 31.73037913 6.25 35.5 C6.22992482 38.06509038 6.21167584 40.63019575 6.1953125 43.1953125 C6.1513513 49.46386969 6.08451805 55.73186544 6 62 C4.02 62 2.04 62 0 62 C0 41.54 0 21.08 0 0 Z "
    fill="#015097" transform="translate(197,40)" />
  <path
    d="M0 0 C3.18359375 -0.4765625 3.18359375 -0.4765625 7 0 C9.27001731 2.18748579 10.59041609 4.86019285 12.0625 7.625 C12.99972882 9.26987084 13.93998102 10.91302166 14.8828125 12.5546875 C15.37942383 13.43350586 15.87603516 14.31232422 16.38769531 15.21777344 C19.25070627 20.1582448 22.35312703 24.94581389 25.4375 29.75 C26.02861572 30.6776416 26.61973145 31.6052832 27.22875977 32.56103516 C27.79135498 33.4432373 28.3539502 34.32543945 28.93359375 35.234375 C29.72467529 36.47646729 29.72467529 36.47646729 30.53173828 37.74365234 C31.79611683 39.68668303 33.11266537 41.57326477 34.45703125 43.4609375 C34.96621094 44.29882812 35.47539062 45.13671875 36 46 C35.25 48.875 35.25 48.875 34 51 C33.01 51 32.02 51 31 51 C29.47290039 49.09838867 29.47290039 49.09838867 27.84765625 46.41796875 C27.24155518 45.4316748 26.6354541 44.44538086 26.01098633 43.42919922 C25.36798584 42.35943848 24.72498535 41.28967773 24.0625 40.1875 C22.71400173 37.98539529 21.36503715 35.78357607 20.015625 33.58203125 C19.34208984 32.47553223 18.66855469 31.3690332 17.97460938 30.22900391 C15.13283036 25.58195034 12.22783027 20.97613765 9.3125 16.375 C8.83240479 15.61340576 8.35230957 14.85181152 7.85766602 14.06713867 C5.84218055 10.87520475 3.80964274 7.71041383 1.66796875 4.6015625 C0 2 0 2 0 0 Z "
    fill="#015097" transform="translate(403,0)" />
  <path
    d="M0 0 C4.37870131 1.4595671 5.59527583 4.8786285 7.8125 8.6875 C8.78831595 10.32544098 9.76628418 11.96210111 10.74609375 13.59765625 C11.26800293 14.4705127 11.78991211 15.34336914 12.32763672 16.24267578 C15.26532974 21.08622396 18.32209135 25.85354253 21.375 30.625 C23.06873977 33.27420675 24.76229672 35.92350654 26.45214844 38.57519531 C27.47116312 40.17154449 28.49513251 41.76474343 29.52441406 43.35449219 C29.98299805 44.07024414 30.44158203 44.78599609 30.9140625 45.5234375 C31.31834473 46.14911621 31.72262695 46.77479492 32.13916016 47.41943359 C33 49 33 49 33 51 C30.21728516 51.27246094 30.21728516 51.27246094 27 51 C25.10693359 49.17285156 25.10693359 49.17285156 23.5234375 46.640625 C22.9365918 45.72474609 22.34974609 44.80886719 21.74511719 43.86523438 C20.88128418 42.44694336 20.88128418 42.44694336 20 41 C19.4627832 40.15244141 18.92556641 39.30488281 18.37207031 38.43164062 C16.76583717 35.88505261 15.19160428 33.32113342 13.625 30.75 C8.99283905 23.15136544 8.99283905 23.15136544 4.125 15.703125 C3.48570557 14.75228027 3.48570557 14.75228027 2.83349609 13.78222656 C1.7049733 12.11794043 0.56011705 10.46476239 -0.5859375 8.8125 C-2 6 -2 6 -1.7890625 3.1875 C-1 1 -1 1 0 0 Z "
    fill="#015097" transform="translate(477,51)" />
  <path
    d="M0 0 C1.98 0 3.96 0 6 0 C4.57239359 4.69676195 2.62530687 8.97024872 0.3671875 13.3125 C0.01165802 14.00327637 -0.34387146 14.69405273 -0.71017456 15.40576172 C-1.46290872 16.865819 -2.21776244 18.32478525 -2.97460938 19.78271484 C-4.10580726 21.96300755 -5.22921918 24.14716997 -6.3515625 26.33203125 C-11.0066874 35.35829157 -15.88237433 44.22792042 -21 53 C-22.50292969 51.69750977 -22.50292969 51.69750977 -24 50 C-23.9113337 44.02241374 -21.5710914 39.65211472 -18.75 34.5625 C-18.3183252 33.76352295 -17.88665039 32.9645459 -17.44189453 32.14135742 C-16.49294851 30.3879283 -15.53909735 28.63714735 -14.58105469 26.88867188 C-12.85734362 23.73935912 -11.15021009 20.58140998 -9.4453125 17.421875 C-6.30702433 11.60904516 -3.15718913 5.80258285 0 0 Z "
    fill="#015097" transform="translate(268,0)" />
  <path
    d="M0 0 C2.79394531 -0.265625 2.79394531 -0.265625 6 0 C7.80761719 1.765625 7.80761719 1.765625 9.296875 4.25 C9.85890625 5.16144775 10.4209375 6.07289551 11 7.01196289 C11.5775 7.99801514 12.155 8.98406738 12.75 10 C13.97368307 12.01969805 15.19764363 14.039228 16.421875 16.05859375 C17.02193359 17.06390137 17.62199219 18.06920898 18.24023438 19.10498047 C19.83651228 21.73104364 21.49199639 24.29549178 23.203125 26.84765625 C23.67911133 27.56630859 24.15509766 28.28496094 24.64550781 29.02539062 C25.52873339 30.35373133 26.42344731 31.67452582 27.33105469 32.98632812 C28.5 34.78515625 28.5 34.78515625 30 38 C29.375 40.87109375 29.375 40.87109375 28 43 C27.01 43.495 27.01 43.495 26 44 C25.60321045 43.36199463 25.2064209 42.72398926 24.79760742 42.06665039 C22.9291234 39.06429769 21.05852193 36.06327177 19.1875 33.0625 C18.51130615 31.97686768 17.8351123 30.89123535 17.13842773 29.77270508 C13.98785261 24.72754494 10.82341354 19.69618315 7.5546875 14.7265625 C7.04526611 13.95175537 6.53584473 13.17694824 6.01098633 12.37866211 C5.06375735 10.94576474 4.11069178 9.51670429 3.15112305 8.09204102 C0 3.32635291 0 3.32635291 0 0 Z "
    fill="#015097" transform="translate(414,0)" />
  <path
    d="M0 0 C0.66 0 1.32 0 2 0 C3.53710938 2.1328125 3.53710938 2.1328125 5.34375 5.125 C6.00890625 6.21756104 6.6740625 7.31012207 7.359375 8.43579102 C8.07304528 9.62378342 8.78658459 10.81185452 9.5 12 C10.22319565 13.19308959 10.94715542 14.38571634 11.671875 15.57788086 C12.75787776 17.3646205 13.84333819 19.15166339 14.92602539 20.94041443 C18.30228258 26.5166027 21.76258427 32.03761333 25.25585938 37.54101562 C28 41.89428583 28 41.89428583 28 43 C23.81492875 43.96412838 23.81492875 43.96412838 21 43 C17.94099086 39.63500942 15.81164611 35.74821556 13.5625 31.8125 C12.91087891 30.71510498 12.25925781 29.61770996 11.58789062 28.48706055 C10.29717725 26.31308356 9.01520155 24.13389152 7.74267578 21.94921875 C6.28688331 19.48550719 4.78827363 17.07680422 3.21484375 14.6875 C2.83062256 14.0999292 2.44640137 13.5123584 2.05053711 12.90698242 C1.07866586 11.43189734 0.10204004 9.95994781 -0.875 8.48828125 C-2.22886578 5.49379339 -2.03403451 4.07517554 -1 1 C-0.67 0.67 -0.34 0.34 0 0 Z "
    fill="#015097" transform="translate(472,59)" />
  <path
    d="M0 0 C1.4540625 0.0309375 1.4540625 0.0309375 2.9375 0.0625 C1.52374811 4.70223314 -0.38378618 8.92893621 -2.6171875 13.21875 C-3.13141769 14.2167865 -3.13141769 14.2167865 -3.65603638 15.23498535 C-4.37845196 16.63446934 -5.10300675 18.03285094 -5.82958984 19.43017578 C-6.9327163 21.55329311 -8.027368 23.68062127 -9.12109375 25.80859375 C-9.82762204 27.1747394 -10.53463733 28.54063332 -11.2421875 29.90625 C-11.56524872 30.53454712 -11.88830994 31.16284424 -12.22116089 31.81018066 C-14.27868908 35.75250433 -16.54198206 39.40925138 -19.0625 43.0625 C-20.3825 41.7425 -21.7025 40.4225 -23.0625 39.0625 C-21.41728812 34.67456139 -19.33331711 30.54672662 -17.18359375 26.390625 C-16.81146255 25.66760193 -16.43933136 24.94457886 -16.05592346 24.199646 C-15.27284478 22.67956477 -14.48863857 21.16006393 -13.70336914 19.64111328 C-12.49764134 17.30793582 -11.29643537 14.97247031 -10.09570312 12.63671875 C-9.33360111 11.15871606 -8.57124043 9.68084671 -7.80859375 8.203125 C-7.4481749 7.50213684 -7.08775604 6.80114868 -6.71641541 6.07891846 C-3.60578457 0.07358744 -3.60578457 0.07358744 0 0 Z "
    fill="#015097" transform="translate(261.0625,-0.0625)" />
  <path
    d="M0 0 C0.33 0 0.66 0 1 0 C1 15.18 1 30.36 1 46 C-0.98 46 -2.96 46 -5 46 C-5.1242878 40.73478658 -5.21466072 35.47044074 -5.2746582 30.20410156 C-5.29968775 28.41553864 -5.33372244 26.62707683 -5.37719727 24.83886719 C-5.43836411 22.25690677 -5.46632445 19.67630678 -5.48828125 17.09375 C-5.51408768 16.30383667 -5.5398941 15.51392334 -5.56648254 14.70007324 C-5.569458 8.71075181 -3.80995679 4.64076551 0 0 Z "
    fill="#015097" transform="translate(257,56)" />
  <path
    d="M0 0 C2.8046875 -0.23828125 2.8046875 -0.23828125 6 0 C7.6953125 1.51953125 7.6953125 1.51953125 9.125 3.8125 C9.69476563 4.7096875 10.26453125 5.606875 10.8515625 6.53125 C11.17672852 7.06234375 11.50189453 7.5934375 11.83691406 8.140625 C13.22840863 10.36514697 14.68759533 12.5391631 16.1484375 14.71875 C17.2669483 16.41579523 18.38412644 18.11371952 19.5 19.8125 C20.05316895 20.63661377 20.60633789 21.46072754 21.17626953 22.30981445 C21.93979736 23.49643677 21.93979736 23.49643677 22.71875 24.70703125 C23.18216797 25.4131958 23.64558594 26.11936035 24.12304688 26.84692383 C25.24097879 29.59164587 24.80644489 31.19919727 24 34 C22.68 34 21.36 34 20 34 C18.46362305 32.24682617 18.46362305 32.24682617 17.01171875 29.79296875 C16.47313232 28.9006958 15.9345459 28.00842285 15.37963867 27.08911133 C14.82123291 26.13157959 14.26282715 25.17404785 13.6875 24.1875 C12.53181733 22.25747267 11.37557213 20.32778207 10.21875 18.3984375 C9.66574219 17.46612305 9.11273438 16.53380859 8.54296875 15.57324219 C6.1597434 11.59868598 3.62330942 7.73320825 1.07421875 3.86328125 C0 2 0 2 0 0 Z "
    fill="#015097" transform="translate(424,0)" />
  <path
    d="M0 0 C3.1057668 2.89840278 5.33695781 5.8549262 7.56640625 9.46484375 C8.21673828 10.51220703 8.86707031 11.55957031 9.53710938 12.63867188 C10.20548828 13.72728516 10.87386719 14.81589844 11.5625 15.9375 C12.23474609 17.02224609 12.90699219 18.10699219 13.59960938 19.22460938 C15.40727388 22.14523514 17.20924576 25.06897804 19 28 C19.56581787 28.89920166 20.13163574 29.79840332 20.71459961 30.72485352 C22 33 22 33 22 35 C19.40625 35.5859375 19.40625 35.5859375 16 35 C13.34887916 32.19038824 11.47428495 28.93110662 9.5 25.625 C8.68595703 24.31982422 8.68595703 24.31982422 7.85546875 22.98828125 C6.2116067 20.3400548 4.60151201 17.67402217 3 15 C2.13761719 13.56672363 2.13761719 13.56672363 1.2578125 12.10449219 C-0.16450638 9.73813419 -1.58374668 7.36999148 -3 5 C-2.01 3.35 -1.02 1.7 0 0 Z "
    fill="#015097" transform="translate(467,67)" />
  <path
    d="M0 0 C4.96926433 4.96926433 4.96926433 4.96926433 5.11352539 9.80712891 C5.11336673 11.44694863 5.10769881 13.08677352 5.09765625 14.7265625 C5.0962413 15.58937836 5.09482635 16.45219421 5.09336853 17.34115601 C5.08776188 20.1024723 5.07520827 22.86370812 5.0625 25.625 C5.05748586 27.4947905 5.0529228 29.36458226 5.04882812 31.234375 C5.03779029 35.82294777 5.0205212 40.41146023 5 45 C3.35 45 1.7 45 0 45 C0 30.15 0 15.3 0 0 Z "
    fill="#015097" transform="translate(206,57)" />
  <path
    d="M0 0 C1.4540625 0.0309375 1.4540625 0.0309375 2.9375 0.0625 C1.57741052 4.49300608 -0.17109576 8.45163736 -2.3203125 12.5546875 C-2.62822723 13.14549103 -2.93614197 13.73629456 -3.25338745 14.34500122 C-4.22729509 16.21136128 -5.20727739 18.07445024 -6.1875 19.9375 C-6.8532705 21.21072533 -7.51863904 22.48416093 -8.18359375 23.7578125 C-9.80525741 26.86181879 -11.43238093 29.96292416 -13.0625 33.0625 C-14.0525 33.0625 -15.0425 33.0625 -16.0625 33.0625 C-17.23950195 30.95996094 -17.23950195 30.95996094 -18.0625 28.0625 C-17.02026367 25.03222656 -17.02026367 25.03222656 -15.23046875 21.703125 C-14.76366447 20.8183548 -14.76366447 20.8183548 -14.28742981 19.91571045 C-13.29160475 18.03851153 -12.27119577 16.17599594 -11.25 14.3125 C-10.5732563 13.04382811 -9.89810696 11.77430437 -9.22460938 10.50390625 C-3.66282657 0.07475156 -3.66282657 0.07475156 0 0 Z "
    fill="#015097" transform="translate(251.0625,-0.0625)" />
  <path d="M0 0 C12.21 0 24.42 0 37 0 C37.66 1.65 38.32 3.3 39 5 C25.8 5 12.6 5 -1 5 C-0.67 3.35 -0.34 1.7 0 0 Z "
    fill="#015097" transform="translate(326,97)" />
  <path d="M0 0 C9.9 0 19.8 0 30 0 C30.66 1.98 31.32 3.96 32 6 C20.78 6 9.56 6 -2 6 C-1.34 4.02 -0.68 2.04 0 0 Z "
    fill="#015097" transform="translate(330,88)" />
  <path
    d="M0 0 C3.0625 -0.63671875 3.0625 -0.63671875 7 0 C9.91509691 3.03682105 11.90143354 6.55683662 14 10.1875 C14.59683594 11.14720703 15.19367188 12.10691406 15.80859375 13.09570312 C20.09229835 20.24345503 20.09229835 20.24345503 19.65625 23.81762695 C19.4396875 24.53781006 19.223125 25.25799316 19 26 C18.01 26.33 17.02 26.66 16 27 C13.8780372 23.63949605 11.76023691 20.27640994 9.64624023 16.91088867 C8.92667418 15.76661816 8.20597962 14.62305648 7.48413086 13.48022461 C6.44608078 11.83634764 5.41243523 10.18969196 4.37890625 8.54296875 C3.7557251 7.55321045 3.13254395 6.56345215 2.49047852 5.54370117 C1 3 1 3 0 0 Z "
    fill="#015097" transform="translate(434,0)" />
  <path
    d="M0 0 C4.3133268 3.96238441 7.07892252 9.15175824 10.1875 14.0625 C10.84169922 15.08150391 11.49589844 16.10050781 12.16992188 17.15039062 C12.78802734 18.12298828 13.40613281 19.09558594 14.04296875 20.09765625 C14.61039795 20.98976807 15.17782715 21.88187988 15.76245117 22.80102539 C17 25 17 25 17 27 C13.86328125 27.54296875 13.86328125 27.54296875 10 27 C7.49156646 24.44340205 5.89723064 21.44017368 4.1875 18.3125 C3.71119141 17.49587891 3.23488281 16.67925781 2.74414062 15.83789062 C-1.94278774 7.69674219 -1.94278774 7.69674219 -3 4 C-1.625 1.6875 -1.625 1.6875 0 0 Z "
    fill="#015097" transform="translate(462,75)" />
  <path
    d="M0 0 C3.79152334 -0.0867982 7.58279296 -0.14032207 11.375 -0.1875 C12.99535156 -0.22520508 12.99535156 -0.22520508 14.6484375 -0.26367188 C15.6796875 -0.27333984 16.7109375 -0.28300781 17.7734375 -0.29296875 C18.72653809 -0.3086792 19.67963867 -0.32438965 20.66162109 -0.34057617 C21.81911865 -0.17199097 21.81911865 -0.17199097 23 0 C25 3 25 3 25 6 C16.42 6 7.84 6 -1 6 C-0.67 4.02 -0.34 2.04 0 0 Z "
    fill="#015097" transform="translate(333,79)" />
  <path d="M0 0 C5.28 0 10.56 0 16 0 C16.66 1.65 17.32 3.3 18 5 C11.4 5 4.8 5 -2 5 C-1.34 3.35 -0.68 1.7 0 0 Z "
    fill="#015097" transform="translate(337,71)" />
</svg>
